<svg width="628" height="131" viewBox="0 0 628 131" fill="none" xmlns="http://www.w3.org/2000/svg">
<path d="M0.855957 130C0.855957 130 4.35196 127.792 4.35196 112.336V19.0479C4.35196 3.40795 0.855957 1.19994 0.855957 1.19994H82.552V15C82.552 15 79.608 2.48795 49.432 2.48795H18.704C17.6 4.51194 16.128 8.92794 16.128 19.0479V64.6799H41.336C61.024 64.6799 62.864 56.5839 62.864 56.5839V74.2479C62.864 74.2479 61.024 66.1519 41.336 66.1519H16.128V112.336C16.128 122.272 17.6 126.688 18.704 128.712H51.456C81.632 128.712 84.576 116.384 84.576 116.384V130H0.855957Z" fill="black"/>
<path d="M100.587 18.8639C95.4348 3.40795 91.2028 1.19994 91.2028 1.19994H109.971C109.971 1.19994 107.211 3.40795 112.363 18.8639L143.091 112.152C144.747 117.12 146.219 120.616 147.691 123.192C148.979 120.616 150.451 117.12 152.107 112.152L182.835 18.8639C187.987 3.40795 185.227 1.19994 185.227 1.19994H195.163C195.163 1.19994 190.931 3.40795 185.963 18.8639L155.051 112.152C149.899 127.792 152.659 130 152.659 130H133.707C133.707 130 136.467 127.792 131.315 112.152L100.587 18.8639Z" fill="black"/>
<path d="M263.575 130.736C227.695 130.552 198.439 101.664 198.439 65.5999C198.439 25.6719 227.695 0.647949 263.575 0.647949C292.279 0.647949 305.895 11.1359 315.463 23.2799L308.287 31.7439C304.607 15.3679 284.919 2.48795 262.471 2.48795C256.951 2.48795 251.431 3.22395 245.727 4.87995C217.759 13.1599 205.247 40.9439 212.791 80.5039C218.311 108.656 240.943 128.528 266.887 128.528C271.671 128.528 276.455 127.792 281.423 126.32C304.791 119.328 319.511 101.664 317.119 67.6239H294.487C270.751 67.6239 265.599 74.4319 261.919 79.3999V65.4159H328.711C328.711 107.552 300.191 131.104 263.575 130.736Z" fill="black"/>
<path d="M342.083 130C342.083 130 345.579 127.792 345.579 112.336V19.0479C345.579 3.40795 342.083 1.19994 342.083 1.19994H423.779V15C423.779 15 420.835 2.48795 390.659 2.48795H359.931C358.827 4.51194 357.355 8.92794 357.355 19.0479V64.6799H382.563C402.251 64.6799 404.091 56.5839 404.091 56.5839V74.2479C404.091 74.2479 402.251 66.1519 382.563 66.1519H357.355V112.336C357.355 122.272 358.827 126.688 359.931 128.712H392.683C422.859 128.712 425.803 116.384 425.803 116.384V130H342.083Z" fill="black"/>
<path d="M441.629 130C441.629 130 445.125 127.792 445.125 112.336V19.0479C445.125 3.40795 441.629 1.19994 441.629 1.19994H461.317C461.317 1.19994 459.109 3.40795 467.573 19.0479L515.781 107.552V19.0479C515.781 3.40795 512.285 1.19994 512.285 1.19994H522.405C522.405 1.19994 518.909 3.40795 518.909 19.0479V130H515.781L455.797 19.0479C453.037 14.0799 450.829 10.5839 448.989 8.00794C448.437 10.5839 448.069 14.0799 448.069 19.0479V112.336C448.069 127.792 451.565 130 451.565 130H441.629Z" fill="black"/>
<path d="M547.179 18.8639C538.163 3.40795 533.379 1.19994 533.379 1.19994H552.147C552.147 1.19994 549.939 3.40795 559.139 18.8639L584.715 63.0239L610.475 18.8639C619.491 3.40795 617.283 1.19994 617.283 1.19994H627.403C627.403 1.19994 622.619 3.40795 613.419 18.8639L586.187 65.5999V112.336C586.187 127.792 589.683 130 589.683 130H570.915C570.915 130 574.411 127.792 574.411 112.336V65.4159L547.179 18.8639Z" fill="black"/>
</svg>
