<svg width="155" height="155" viewBox="0 0 155 155" fill="none" xmlns="http://www.w3.org/2000/svg">
<g clip-path="url(#paint0_diamond_153_40_clip_path)" data-figma-skip-parse="true"><g transform="matrix(0 0.0775 -0.0775 0 77.5 77.5)"><rect x="0" y="0" width="1012.9" height="1012.9" fill="url(#paint0_diamond_153_40)" opacity="1" shape-rendering="crispEdges"/><rect x="0" y="0" width="1012.9" height="1012.9" transform="scale(1 -1)" fill="url(#paint0_diamond_153_40)" opacity="1" shape-rendering="crispEdges"/><rect x="0" y="0" width="1012.9" height="1012.9" transform="scale(-1 1)" fill="url(#paint0_diamond_153_40)" opacity="1" shape-rendering="crispEdges"/><rect x="0" y="0" width="1012.9" height="1012.9" transform="scale(-1)" fill="url(#paint0_diamond_153_40)" opacity="1" shape-rendering="crispEdges"/></g></g><circle cx="77.5" cy="77.5" r="77.5" data-figma-gradient-fill="{&#34;type&#34;:&#34;GRADIENT_DIAMOND&#34;,&#34;stops&#34;:[{&#34;color&#34;:{&#34;r&#34;:0.86041665077209473,&#34;g&#34;:0.67788463830947876,&#34;b&#34;:1.0,&#34;a&#34;:1.0},&#34;position&#34;:0.0},{&#34;color&#34;:{&#34;r&#34;:0.90095984935760498,&#34;g&#34;:0.83173078298568726,&#34;b&#34;:1.0,&#34;a&#34;:1.0},&#34;position&#34;:0.49038460850715637},{&#34;color&#34;:{&#34;r&#34;:0.86057692766189575,&#34;g&#34;:0.86754810810089111,&#34;b&#34;:1.0,&#34;a&#34;:1.0},&#34;position&#34;:1.0}],&#34;stopsVar&#34;:[{&#34;color&#34;:{&#34;r&#34;:0.86041665077209473,&#34;g&#34;:0.67788463830947876,&#34;b&#34;:1.0,&#34;a&#34;:1.0},&#34;position&#34;:0.0},{&#34;color&#34;:{&#34;r&#34;:0.90095984935760498,&#34;g&#34;:0.83173078298568726,&#34;b&#34;:1.0,&#34;a&#34;:1.0},&#34;position&#34;:0.49038460850715637},{&#34;color&#34;:{&#34;r&#34;:0.86057692766189575,&#34;g&#34;:0.86754810810089111,&#34;b&#34;:1.0,&#34;a&#34;:1.0},&#34;position&#34;:1.0}],&#34;transform&#34;:{&#34;m00&#34;:9.4910134913468551e-15,&#34;m01&#34;:-155.0,&#34;m02&#34;:155.0,&#34;m10&#34;:155.0,&#34;m11&#34;:9.4910134913468551e-15,&#34;m12&#34;:-9.4910134913468551e-15},&#34;opacity&#34;:1.0,&#34;blendMode&#34;:&#34;NORMAL&#34;,&#34;visible&#34;:true}"/>
<path d="M40.4869 36.6827C36.0575 23.3762 32.4191 21.4752 32.4191 21.4752H48.5547C48.5547 21.4752 46.1818 23.3762 50.6112 36.6827L77.0292 116.997C78.453 121.274 79.7185 124.284 80.9841 126.502C82.0914 124.284 83.3569 121.274 84.7806 116.997L111.199 36.6827C115.628 23.3762 113.255 21.4752 113.255 21.4752H121.798C121.798 21.4752 118.159 23.3762 113.888 36.6827L87.3117 116.997C82.8823 130.462 85.2552 132.363 85.2552 132.363H68.9615C68.9615 132.363 71.3344 130.462 66.905 116.997L40.4869 36.6827Z" fill="#222222"/>
<path d="M78 132.996C47.1525 132.838 22 107.967 22 76.919C22 42.5438 47.1525 21 78 21C102.678 21 114.384 30.0294 122.61 40.4845L116.441 47.7714C113.277 33.6729 96.3503 22.5841 77.0508 22.5841C72.3051 22.5841 67.5593 23.2177 62.6554 24.6434C38.6102 31.7719 27.8531 55.6919 34.339 89.7502C39.0847 113.987 58.5424 131.095 80.8475 131.095C84.9605 131.095 89.0735 130.462 93.3447 129.194C113.435 123.175 126.09 107.967 124.034 78.6615H104.576C84.1695 78.6615 79.7401 84.5227 76.5763 88.7998V76.7606H134C134 113.037 109.48 133.313 78 132.996Z" fill="#222222"/>
<defs>
<clipPath id="paint0_diamond_153_40_clip_path"><circle cx="77.5" cy="77.5" r="77.5"/></clipPath><linearGradient id="paint0_diamond_153_40" x1="0" y1="0" x2="500" y2="500" gradientUnits="userSpaceOnUse">
<stop stop-color="#DBADFF"/>
<stop offset="0.490385" stop-color="#E6D4FF"/>
<stop offset="1" stop-color="#DBDDFF"/>
</linearGradient>
</defs>
</svg>
