<svg width="102" height="102" viewBox="0 0 102 102" fill="none" xmlns="http://www.w3.org/2000/svg">
<path d="M16.8363 14.2824C12.8024 2.164 9.48882 0.432795 9.48882 0.432795H24.1837C24.1837 0.432795 22.0227 2.164 26.0566 14.2824L50.1159 87.4257C51.4125 91.3209 52.5651 94.062 53.7176 96.0817C54.7261 94.062 55.8786 91.3209 57.1752 87.4257L81.2346 14.2824C85.2685 2.164 83.1075 0.432795 83.1075 0.432795H90.8871C90.8871 0.432795 87.5735 2.164 83.6837 14.2824L59.4803 87.4257C55.4464 99.6884 57.6074 101.42 57.6074 101.42H42.7685C42.7685 101.42 44.9295 99.6884 40.8956 87.4257L16.8363 14.2824Z" fill="#222222"/>
<path d="M51 101.997C22.9068 101.852 0 79.2025 0 50.9262C0 19.6203 22.9068 0 51 0C73.4746 0 84.1356 8.22321 91.6271 17.7448L86.0085 24.3811C83.1271 11.5413 67.7119 1.44267 50.1356 1.44267C45.8136 1.44267 41.4915 2.01974 37.0254 3.31814C15.1271 9.81014 5.33051 31.5944 11.2373 62.6118C15.5593 84.6847 33.2797 100.265 53.5932 100.265C57.339 100.265 61.0848 99.6884 64.9746 98.5343C83.2712 93.0521 94.7966 79.2025 92.9237 52.5131H75.2034C56.6187 52.5131 52.5847 57.851 49.7034 61.7462V50.7819H102C102 83.819 79.6695 102.285 51 101.997Z" fill="#222222"/>
</svg>
